<!DOCTYPE svg PUBLIC "-//W3C//DTD SVG 1.1//EN" "http://www.w3.org/Graphics/SVG/1.1/DTD/svg11.dtd"><svg style="display: none;" aria-hidden="true" xmlns="http://www.w3.org/2000/svg" xmlns:xlink="http://www.w3.org/1999/xlink">
<symbol viewBox="0 0 454.886 454.886" id="svg-add"><path d="M257.762,454.886c-41.798,0-75.812-34-75.812-75.812V136.465c-0.056-12.127,4.65-23.587,13.252-32.235 c17.18-17.266,47.294-17.266,64.474,0c8.602,8.648,13.311,20.108,13.254,32.312v212.2c0,8.387-6.785,15.168-15.168,15.168 c-8.377,0-15.158-6.781-15.158-15.168V136.465c0.014-4.13-1.559-7.95-4.415-10.839c-5.745-5.746-15.754-5.746-21.499,0 c-2.858,2.889-4.427,6.708-4.413,10.767v242.681c0,25.086,20.405,45.49,45.485,45.49c25.086,0,45.49-20.404,45.49-45.49V106.141 c0-41.801-34.009-75.814-75.812-75.814c-41.803,0-75.817,34.014-75.817,75.814v212.28c0,8.382-6.781,15.163-15.161,15.163 s-15.161-6.781-15.161-15.163v-212.28C121.302,47.623,168.92,0,227.441,0s106.144,47.623,106.144,106.141v272.933 C333.584,420.886,299.584,454.886,257.762,454.886z"/></symbol>
<symbol viewBox="0 0 39 4"  id="svg-arrow-next"><path d="M38.1768 2.17678C38.2744 2.07915 38.2744 1.92085 38.1768 1.82322L36.5858 0.232233C36.4882 0.134602 36.3299 0.134602 36.2322 0.232233C36.1346 0.329864 36.1346 0.488155 36.2322 0.585786L37.6464 2L36.2322 3.41421C36.1346 3.51184 36.1346 3.67014 36.2322 3.76777C36.3299 3.8654 36.4882 3.8654 36.5858 3.76777L38.1768 2.17678ZM0 2.25H38V1.75H0V2.25Z" /></symbol>
<symbol viewBox="0 0 63 37" fill="none" id="svg-carrier"><g clip-path="url(#cclip0_2_177)" stroke="#6B6B6B" stroke-miterlimit="10"><path d="M0.117249 36.8836V30.824H15.8133V24.527H31.1503V17.9903H47.2077V11.6934H62.1857"/><path d="M8.14714 32.2831H6.94806V36.8836H8.14714V32.2831zM24.5614 26.505H23.3624V36.8836H24.5614V26.505zM40.9776 20.834H39.6589V36.8836H40.9776V20.834zM55.5966 15.3771H54.1582V36.8859H55.5966V15.3771zM58.1707.760928L62.1857.225708.117249 27.1403M59.2502 2.42476L62.1858.225708"/></g><defs><clipPath id="cclip0_2_177"><path fill="#fff" d="M0 0H63V37H0z"/></clipPath></defs></symbol>
<symbol viewBox="0 0 511.626 511.627" id="svg-external-link"><path d="M392.857,292.354h-18.274c-2.669,0-4.859,0.855-6.563,2.573c-1.718,1.708-2.573,3.897-2.573,6.563v91.361 c0,12.563-4.47,23.315-13.415,32.262c-8.945,8.945-19.701,13.414-32.264,13.414H82.224c-12.562,0-23.317-4.469-32.264-13.414 c-8.945-8.946-13.417-19.698-13.417-32.262V155.31c0-12.562,4.471-23.313,13.417-32.259c8.947-8.947,19.702-13.418,32.264-13.418 h200.994c2.669,0,4.859-0.859,6.57-2.57c1.711-1.713,2.566-3.9,2.566-6.567V82.221c0-2.662-0.855-4.853-2.566-6.563 c-1.711-1.713-3.901-2.568-6.57-2.568H82.224c-22.648,0-42.016,8.042-58.102,24.125C8.042,113.297,0,132.665,0,155.313v237.542 c0,22.647,8.042,42.018,24.123,58.095c16.086,16.084,35.454,24.13,58.102,24.13h237.543c22.647,0,42.017-8.046,58.101-24.13 c16.085-16.077,24.127-35.447,24.127-58.095v-91.358c0-2.669-0.856-4.859-2.574-6.57 C397.709,293.209,395.519,292.354,392.857,292.354z"/><path d="M506.199,41.971c-3.617-3.617-7.905-5.424-12.85-5.424H347.171c-4.948,0-9.233,1.807-12.847,5.424 c-3.617,3.615-5.428,7.898-5.428,12.847s1.811,9.233,5.428,12.85l50.247,50.248L198.424,304.067 c-1.906,1.903-2.856,4.093-2.856,6.563c0,2.479,0.953,4.668,2.856,6.571l32.548,32.544c1.903,1.903,4.093,2.852,6.567,2.852 s4.665-0.948,6.567-2.852l186.148-186.148l50.251,50.248c3.614,3.617,7.898,5.426,12.847,5.426s9.233-1.809,12.851-5.426 c3.617-3.616,5.424-7.898,5.424-12.847V54.818C511.626,49.866,509.813,45.586,506.199,41.971z"/></symbol>
<symbol viewBox="0 0 28 28" id="svg-facebook"><path d="M13.9998 27.9636C21.7117 27.9636 27.9634 21.7119 27.9634 14C27.9634 6.28808 21.7117 0.0363464 13.9998 0.0363464C6.28787 0.0363464 0.0361328 6.28808 0.0361328 14C0.0361328 21.7119 6.28787 27.9636 13.9998 27.9636Z" /><path d="M11.8779 9.40732C11.8779 9.81095 11.8779 11.611 11.8779 11.611H10.2633V14.3055H11.8779V21.691H15.1942V14.3H17.4197C17.4197 14.3 17.6269 13.0073 17.7306 11.5946C17.4415 11.5946 15.2106 11.5946 15.2106 11.5946C15.2106 11.5946 15.2106 10.0291 15.2106 9.75095C15.2106 9.47823 15.5706 9.10732 15.9306 9.10732C16.2851 9.10732 17.0379 9.10732 17.736 9.10732C17.736 8.74186 17.736 7.47095 17.736 6.30368C16.8033 6.30368 15.7451 6.30368 15.2815 6.30368C11.796 6.30913 11.8779 9.00368 11.8779 9.40732Z" fill="#00A1E1"/></symbol>
<symbol viewBox="0 0 512 512" id="svg-fax"><path fill="var(--ci-primary-color, currentColor)" d="M487.944,233.654,424,176.815V89.373L350.627,16H152V144H80a24.028,24.028,0,0,0-24,24V472a24.028,24.028,0,0,0,24,24H496V251.593A24.024,24.024,0,0,0,487.944,233.654ZM152,464H88V176h64ZM328,48h9.373L392,102.627V112H328ZM184,48H296v96h96v72H184ZM464,464H184V248H424V219.629l40,35.557Z" class="fci-primary"/><path fill="var(--ci-primary-color, currentColor)" class="fci-primary" d="M232 344H264V376H232zM296 344H328V376H296zM232 408H264V440H232zM296 408H328V440H296zM360 344H392V376H360zM360 408H392V440H360zM232 280H392V312H232z"/></symbol>
<symbol viewBox="0 0 32 32" id="svg-google"><path d="M2 12.906c-1.104 0-2 0.896-2 2v2.172c0 2.667 4 2.667 4 0v-2.172c0-1.104-0.896-2-2-2zM30 12.906c-1.104 0-2 0.896-2 2v2.172c0 2.667 4 2.667 4 0v-2.172c0-1.104-0.896-2-2-2zM8.906 19.453c-1.104 0-2 0.896-2 2v2.172c0 2.667 4 2.667 4 0v-2.156c0-1.109-0.891-2-2-2zM8.906 6.359c-1.104 0-2 0.896-2 2v7.146c0 2.667 4 2.667 4 0v-7.156c0-1.109-0.891-2-2-2zM23.094 6.359c-1.109 0-2 0.896-2 2v2.188c0 2.667 4 2.667 4 0v-2.188c0-1.104-0.896-2-2-2zM16 0c-1.104 0-2 0.896-2 2v2.172c0 2.667 4 2.667 4 0v-2.172c0-1.104-0.896-2-2-2zM16 25.813c-1.104 0-2 0.896-2 2v2.188c-0.010 2.667 3.99 2.682 4 0.016v-2.188c0-1.094-0.896-2-2-2zM23.094 14.531c-1.109 0-2 0.906-2 2v7.109c0 2.667 4 2.667 4 0v-7.109c0-1.104-0.896-2-2-2zM16 8.172c-1.104 0-2 0.906-2 2v11.641c0 2.667 4 2.667 4 0v-11.625c0-1.109-0.896-2-2-2z"/></symbol>
<symbol viewBox="0 0 54 54" fill="none" id="svg-journal"><path d="M17.7228 16.0272L17.3693 16.3807L17.7228 16.0272C17.5001 15.8045 17.375 15.5024 17.375 15.1875C17.375 14.8726 17.5001 14.5705 17.7228 14.3478C17.9455 14.1251 18.2476 14 18.5625 14H35.4375C35.7524 14 36.0545 14.1251 36.2772 14.3478C36.4999 14.5705 36.625 14.8726 36.625 15.1875C36.625 15.5024 36.4999 15.8045 36.2772 16.0272C36.0545 16.2499 35.7524 16.375 35.4375 16.375H18.5625C18.2476 16.375 17.9455 16.2499 17.7228 16.0272ZM17.7228 22.7772L17.3693 23.1307L17.7228 22.7772C17.5001 22.5545 17.375 22.2524 17.375 21.9375C17.375 21.6226 17.5001 21.3205 17.7228 21.0978C17.9455 20.8751 18.2476 20.75 18.5625 20.75H35.4375C35.7524 20.75 36.0545 20.8751 36.2772 21.0978C36.4999 21.3205 36.625 21.6226 36.625 21.9375C36.625 22.2524 36.4999 22.5545 36.2772 22.7772C36.0545 22.9999 35.7524 23.125 35.4375 23.125H18.5625C18.2476 23.125 17.9455 22.9999 17.7228 22.7772ZM17.375 35.4375C17.375 35.1226 17.5001 34.8205 17.7228 34.5978C17.9455 34.3751 18.2476 34.25 18.5625 34.25H25.3125C25.6274 34.25 25.9295 34.3751 26.1522 34.5978C26.3749 34.8205 26.5 35.1226 26.5 35.4375C26.5 35.7524 26.3749 36.0545 26.1522 36.2772C25.9295 36.4999 25.6274 36.625 25.3125 36.625H18.5625C18.2476 36.625 17.9455 36.4999 17.7228 36.2772C17.5001 36.0545 17.375 35.7524 17.375 35.4375ZM17.375 28.6875C17.375 28.3726 17.5001 28.0705 17.7228 27.8478C17.9455 27.6251 18.2476 27.5 18.5625 27.5H35.4375C35.7524 27.5 36.0545 27.6251 36.2772 27.8478C36.4999 28.0705 36.625 28.3726 36.625 28.6875C36.625 29.0024 36.4999 29.3045 36.2772 29.5272C36.0545 29.7499 35.7524 29.875 35.4375 29.875H18.5625C18.2476 29.875 17.9455 29.7499 17.7228 29.5272C17.5001 29.3045 17.375 29.0024 17.375 28.6875Z" stroke="#6B6B6B"/><path d="M10.125 0.5H10.625H43.875C45.5326 0.5 47.1223 1.15848 48.2944 2.33058C49.4665 3.50269 50.125 5.0924 50.125 6.75V47.25C50.125 48.9076 49.4665 50.4973 48.2944 51.6694C47.1223 52.8415 45.5326 53.5 43.875 53.5H10.125C8.4674 53.5 6.87769 52.8415 5.70558 51.6694C4.53348 50.4973 3.875 48.9076 3.875 47.25V44.375H6.25V47.25C6.25 48.2777 6.65826 49.2633 7.38496 49.99C8.11166 50.7167 9.09729 51.125 10.125 51.125H43.875C44.9027 51.125 45.8883 50.7167 46.615 49.99C47.3417 49.2633 47.75 48.2777 47.75 47.25V6.75C47.75 5.72229 47.3417 4.73666 46.615 4.00996C45.8883 3.28326 44.9027 2.875 43.875 2.875H10.125C9.09729 2.875 8.11166 3.28326 7.38496 4.00996C6.65826 4.73666 6.25 5.72229 6.25 6.75V9.625H3.875V6.75C3.875 5.0924 4.53348 3.50269 5.70558 2.33058C6.87769 1.15848 8.4674 0.5 10.125 0.5Z" stroke="#6B6B6B"/><path d="M3.375 17.375H3.875V16.875V15.1875C3.875 14.8726 4.00011 14.5705 4.22281 14.3478C4.44551 14.1251 4.74756 14 5.0625 14C5.37744 14 5.67949 14.1251 5.90219 14.3478L6.25574 13.9943L5.90219 14.3478C6.12489 14.5705 6.25 14.8726 6.25 15.1875V16.875V17.375H6.75H8.4375C8.75244 17.375 9.05449 17.5001 9.27719 17.7228C9.49989 17.9455 9.625 18.2476 9.625 18.5625C9.625 18.8774 9.49989 19.1795 9.27719 19.4022C9.05449 19.6249 8.75244 19.75 8.4375 19.75H1.6875C1.37256 19.75 1.07051 19.6249 0.847811 19.4022C0.625111 19.1795 0.5 18.8774 0.5 18.5625C0.5 18.2476 0.625111 17.9455 0.847811 17.7228C1.07051 17.5001 1.37256 17.375 1.6875 17.375H3.375ZM3.375 27.5H3.875V27V25.3125C3.875 24.9976 4.00011 24.6955 4.22281 24.4728C4.44551 24.2501 4.74756 24.125 5.0625 24.125C5.37744 24.125 5.67949 24.2501 5.90219 24.4728C6.12489 24.6955 6.25 24.9976 6.25 25.3125V27V27.5H6.75H8.4375C8.75245 27.5 9.05449 27.6251 9.27719 27.8478C9.49989 28.0705 9.625 28.3726 9.625 28.6875C9.625 29.0024 9.49989 29.3045 9.27719 29.5272C9.05449 29.7499 8.75245 29.875 8.4375 29.875H1.6875C1.37255 29.875 1.07051 29.7499 0.847811 29.5272C0.625111 29.3045 0.5 29.0024 0.5 28.6875C0.5 28.3726 0.625112 28.0705 0.847811 27.8478C1.07051 27.6251 1.37255 27.5 1.6875 27.5H3.375ZM3.375 37.625H3.875V37.125V35.4375C3.875 35.1226 4.00011 34.8205 4.22281 34.5978C4.44551 34.3751 4.74755 34.25 5.0625 34.25C5.37745 34.25 5.67949 34.3751 5.90219 34.5978C6.12489 34.8205 6.25 35.1226 6.25 35.4375V37.125V37.625H6.75H8.4375C8.75245 37.625 9.05449 37.7501 9.27719 37.9728C9.49989 38.1955 9.625 38.4976 9.625 38.8125C9.625 39.1274 9.49989 39.4295 9.27719 39.6522C9.05449 39.8749 8.75245 40 8.4375 40H1.6875C1.37255 40 1.07051 39.8749 0.847811 39.6522C0.625111 39.4295 0.5 39.1274 0.5 38.8125C0.5 38.4976 0.625111 38.1955 0.847812 37.9728C1.07051 37.7501 1.37255 37.625 1.6875 37.625H3.375Z" stroke="#6B6B6B"/></symbol>
<symbol viewBox="0 0 30 30" id="svg-location"><g data-name="Layer 2"><circle cx="15" cy="9.571" fill="none" r="3.429"/><path d="M25.31152,20.40039a1,1,0,1,0-.623,1.90039C26.97607,23.05078,28,23.94629,28,24.5c0,1.39355-5.18506,3.5-13,3.5S2,25.89355,2,24.5c0-.55371,1.02393-1.44922,3.31152-2.19922a1,1,0,1,0-.623-1.90039C.81348,21.6709,0,23.33105,0,24.5,0,28.11035,7.5459,30,15,30s15-1.88965,15-5.5C30,23.33105,29.18652,21.6709,25.31152,20.40039Z"/><path d="M14.37549,25.78125a1.00083,1.00083,0,0,0,1.249,0c.36572-.293,8.94678-7.26074,8.94678-16.21a9.57129,9.57129,0,0,0-19.14258,0C5.42871,18.52051,14.00977,25.48828,14.37549,25.78125Zm-2.80408-16.21A3.42859,3.42859,0,1,1,15,13,3.4287,3.4287,0,0,1,11.57141,9.57129Z"/></g></symbol>
<symbol viewBox="0 0 100.354 100.352" id="svg-mail"><path d="M93.09,76.224c0.047-0.145,0.079-0.298,0.079-0.459V22.638c0-0.162-0.032-0.316-0.08-0.462	c-0.007-0.02-0.011-0.04-0.019-0.06c-0.064-0.171-0.158-0.325-0.276-0.46c-0.008-0.009-0.009-0.02-0.017-0.029	c-0.005-0.005-0.011-0.007-0.016-0.012c-0.126-0.134-0.275-0.242-0.442-0.323c-0.013-0.006-0.023-0.014-0.036-0.02	c-0.158-0.071-0.33-0.111-0.511-0.123c-0.018-0.001-0.035-0.005-0.053-0.005c-0.017-0.001-0.032-0.005-0.049-0.005H8.465	c-0.017,0-0.033,0.004-0.05,0.005c-0.016,0.001-0.032,0.004-0.048,0.005c-0.183,0.012-0.358,0.053-0.518,0.125	c-0.01,0.004-0.018,0.011-0.028,0.015c-0.17,0.081-0.321,0.191-0.448,0.327c-0.005,0.005-0.011,0.006-0.016,0.011	c-0.008,0.008-0.009,0.019-0.017,0.028c-0.118,0.135-0.213,0.29-0.277,0.461c-0.008,0.02-0.012,0.04-0.019,0.061	c-0.048,0.146-0.08,0.3-0.08,0.462v53.128c0,0.164,0.033,0.32,0.082,0.468c0.007,0.02,0.011,0.039,0.018,0.059	c0.065,0.172,0.161,0.327,0.28,0.462c0.007,0.008,0.009,0.018,0.016,0.026c0.006,0.007,0.014,0.011,0.021,0.018	c0.049,0.051,0.103,0.096,0.159,0.14c0.025,0.019,0.047,0.042,0.073,0.06c0.066,0.046,0.137,0.083,0.21,0.117	c0.018,0.008,0.034,0.021,0.052,0.028c0.181,0.077,0.38,0.121,0.589,0.121h83.204c0.209,0,0.408-0.043,0.589-0.121	c0.028-0.012,0.054-0.03,0.081-0.044c0.062-0.031,0.124-0.063,0.181-0.102c0.03-0.021,0.057-0.048,0.086-0.071	c0.051-0.041,0.101-0.082,0.145-0.129c0.008-0.008,0.017-0.014,0.025-0.022c0.008-0.009,0.01-0.021,0.018-0.03	c0.117-0.134,0.211-0.288,0.275-0.458C93.078,76.267,93.083,76.246,93.09,76.224z M9.965,26.04l25.247,23.061L9.965,72.346V26.04z M61.711,47.971c-0.104,0.068-0.214,0.125-0.301,0.221c-0.033,0.036-0.044,0.083-0.073,0.121l-11.27,10.294L12.331,24.138h75.472	L61.711,47.971z M37.436,51.132l11.619,10.613c0.287,0.262,0.649,0.393,1.012,0.393s0.725-0.131,1.011-0.393l11.475-10.481	l25.243,23.002H12.309L37.436,51.132z M64.778,49.232L90.169,26.04v46.33L64.778,49.232z"/></symbol>
<symbol viewBox="0 0 77 54" fill="none" id="svg-partners"><g clip-path="url(#kclip0_2_159)"><path d="M11.8934 21.3256C11.3295 22.4441 11.0961 23.7005 11.2206 24.9472C11.3452 26.1939 11.8225 27.3791 12.5965 28.3637L12.6352 28.4165C13.3115 29.3377 14.1058 30.1659 14.9977 30.8798C15.1173 30.9713 15.2333 31.0663 15.3493 31.1649L32.1752 45.9661C33.24 46.9028 34.5781 47.471 35.991 47.5864C37.4039 47.7018 38.8163 47.3581 40.0187 46.6065C47.827 41.7256 65.1803 30.542 65.8131 29.3842C66.0662 28.9268 65.6549 27.9062 66.2455 27.3397C68.1123 25.552 68.4815 24.3344 67.6272 21.8957L63.5138 10.1666C63.0558 8.83999 62.1847 7.69539 61.0285 6.90107C59.8724 6.10675 58.4922 5.70461 57.0907 5.75374C55.4559 5.8206 53.2587 5.62705 50.3301 4.90916C47.8843 4.27083 45.38 3.88291 42.8558 3.75139C42.0714 3.71835 41.2857 3.73716 40.5038 3.80769C39.2892 3.93008 38.1338 4.39364 37.171 5.14493L33.6764 7.86517C32.5991 8.70653 31.2838 9.18564 29.9182 9.23409C28.3146 9.25841 26.7232 8.95298 25.2424 8.33673C23.7134 7.74969 22.0215 7.74948 20.4923 8.33613C18.9631 8.92279 17.7048 10.0549 16.9595 11.5144L11.8934 21.3256Z" fill="#fff" stroke="#6B6B6B" stroke-miterlimit="10"/><path d="M20.7723 3.61135L14.664.465028C13.3829-.194822 11.8101.30975 11.1508 1.59203L.459835 22.3878C-.199377 23.6701.304714 25.2445 1.58575 25.9044L7.69404 29.0507C8.97508 29.7105 10.548 29.206 11.2072 27.9237L21.8982 7.12788C22.5574 5.8456 22.0533 4.2712 20.7723 3.61135zM68.4532 29.6666L75.0016 27.5885C76.3749 27.1527 77.1353 25.685 76.6999 24.3104L69.6389 2.01622C69.2035.641556 67.7372-.119545 66.3639.316261L59.8155 2.39428C58.4422 2.83009 57.6818 4.29778 58.1172 5.67244L65.1782 27.9666C65.6136 29.3413 67.0798 30.1024 68.4532 29.6666zM60.8117 42.4203C62.2485 43.6422 64.4029 43.4668 65.6236 42.0286 66.8442 40.5903 66.669 38.4339 65.2322 37.2121L51.758 25.7538C50.3212 24.532 48.1668 24.7074 46.9462 26.1456 45.7255 27.5838 45.9007 29.7402 47.3375 30.9621L60.8117 42.4203z" fill="#fff" stroke="#6B6B6B" stroke-miterlimit="10"/><path d="M54.8233 46.2926C56.2601 47.5145 58.4145 47.3391 59.6351 45.9009 60.8558 44.4627 60.6806 42.3062 59.2438 41.0844L47.3423 30.9636C45.9055 29.7417 43.7512 29.9171 42.5305 31.3553 41.3098 32.7936 41.4851 34.95 42.9219 36.1718L54.8233 46.2926zM48.2269 49.6528C49.6637 50.8747 51.818 50.6993 53.0387 49.2611 54.2594 47.8229 54.0841 45.6665 52.6473 44.4446L40.7459 34.3238C39.309 33.102 37.1547 33.2774 35.934 34.7156 34.7134 36.1538 34.8886 38.3102 36.3254 39.532L48.2269 49.6528zM41.6081 53.0003C43.045 54.2221 45.1993 54.0467 46.42 52.6085 47.6406 51.1703 47.4654 49.0139 46.0286 47.792L34.1271 37.6712C32.6903 36.4494 30.536 36.6248 29.3153 38.063 28.0947 39.5012 28.2699 41.6576 29.7067 42.8795L41.6081 53.0003z" fill="#fff" stroke="#6B6B6B" stroke-miterlimit="10"/><path d="M35.9113 11.2731L19.3929 29.2039L37.7379 46.1367L54.2564 28.2059L35.9113 11.2731Z" fill="#fff"/><path d="M24.475 31.4612L24.4724 31.4588C23.4161 30.4838 21.7702 30.5506 20.7962 31.6079L18.3605 34.2518C17.3865 35.3091 17.4531 36.9566 18.5094 37.9316L18.512 37.934C19.5683 38.9089 21.2142 38.8422 22.1882 37.7849L24.6239 35.1409C25.5979 34.0836 25.5312 32.4362 24.475 31.4612zM32.2142 33.9367L31.0657 32.7871C30.0497 31.7701 28.4025 31.7701 27.3865 32.7871L21.6066 38.5725C20.5907 39.5894 20.5907 41.2383 21.6066 42.2552L22.7552 43.4049C23.7711 44.4218 25.4184 44.4218 26.4344 43.4049L32.2142 37.6194C33.2302 36.6025 33.2302 34.9536 32.2142 33.9367z" fill="#fff" stroke="#6B6B6B" stroke-miterlimit="10"/><path d="M36.6024 39.2072L35.4539 38.0576C34.4379 37.0406 32.7907 37.0406 31.7747 38.0576L27.5909 42.2455C26.5749 43.2624 26.5749 44.9113 27.5909 45.9282L28.7394 47.0778C29.7554 48.0948 31.4026 48.0948 32.4186 47.0779L36.6024 42.89C37.6184 41.873 37.6184 40.2242 36.6024 39.2072Z" fill="#fff" stroke="#6B6B6B" stroke-miterlimit="10"/><path d="M38.4974 45.5229L38.0723 45.0974C37.0563 44.0804 35.4091 44.0804 34.3931 45.0974L32.8568 46.6352C31.8408 47.6521 31.8408 49.301 32.8568 50.3179L33.2819 50.7434C34.2979 51.7604 35.9451 51.7604 36.9611 50.7434L38.4974 49.2056C39.5134 48.1887 39.5134 46.5398 38.4974 45.5229Z" fill="#fff" stroke="#6B6B6B" stroke-miterlimit="10"/><path d="M56.0041 29.3841L41.2383 16.3636C41.1293 16.2686 41.0239 16.1665 40.9219 16.0645C40.4403 15.5929 38.6684 14.0551 37.3359 15.5929C36.1687 16.9407 35.9297 18.7601 35.9051 19.587C35.8817 20.2314 35.7705 20.8696 35.5746 21.4838C35.0332 23.1132 33.6094 25.6293 29.9144 26.495C29.9144 26.495 27.6398 27.3853 27.8788 22.1489C28.1179 16.9126 27.8577 14.9384 27.8577 14.9384C27.8577 14.9384 27.2425 12.9607 29.373 11.5249C29.7562 11.2244 30.1158 10.895 30.4488 10.5395C31.7461 9.00524 31.7179 9.41697 33.2015 8.14307" fill="#fff"/><path d="M56.0041 29.3841L41.2383 16.3636C41.1293 16.2686 41.0239 16.1665 40.9219 16.0645C40.4403 15.5929 38.6684 14.0551 37.3359 15.5929C36.1688 16.9407 35.9297 18.7601 35.9051 19.587C35.8817 20.2314 35.7705 20.8696 35.5746 21.4838C35.0332 23.1132 33.6094 25.6293 29.9144 26.495C29.9144 26.495 27.6398 27.3853 27.8788 22.1489C28.1179 16.9126 27.8577 14.9384 27.8577 14.9384C27.8577 14.9384 27.2425 12.9607 29.373 11.5249C29.7562 11.2244 30.1158 10.895 30.4488 10.5395C31.7461 9.00524 31.7179 9.41697 33.2015 8.14307" stroke="#6B6B6B" stroke-miterlimit="10"/></g><defs><clipPath id="kclip0_2_159"><path fill="#fff" d="M0 0H77V54H0z"/></clipPath></defs></symbol>
<symbol viewBox="0 0 33 37" fill="none" id="svg-pdf"><path d="M11.5621 23.7754H10.7383V27.4826H11.5621C11.9668 27.4826 12.292 27.3453 12.5305 27.0707C12.7689 26.7961 12.8918 26.442 12.8918 26.0156V25.2424C12.8918 24.816 12.7689 24.4691 12.5305 24.1945C12.292 23.9127 11.9668 23.7754 11.5621 23.7754Z" fill="#11B24C"/><path d="M24.4182 20.6606H0.910156V30.337H20.8771L24.4182 20.6606ZM8.39687 25.8132C8.07891 26.1022 7.64531 26.2396 7.08887 26.2396H5.99766V28.1546H5.15215V23.096H7.08887C7.64531 23.096 8.08613 23.2405 8.39687 23.5296C8.71484 23.8187 8.87383 24.1944 8.87383 24.6642C8.87383 25.1483 8.71484 25.5241 8.39687 25.8132ZM13.7301 26.0155C13.7301 26.6515 13.5277 27.1646 13.1303 27.562C12.7256 27.9595 12.2053 28.1618 11.5621 28.1618H9.89277V23.1032H11.5621C12.2053 23.1032 12.7256 23.3056 13.1303 23.703C13.535 24.1005 13.7301 24.6208 13.7301 25.2495V26.0155ZM18.1094 23.7753H15.7174V25.3218H17.7553V26.0011H15.7174V28.1618H14.8719V23.1032H18.1094V23.7753Z" fill="#11B24C"/><path d="M7.09121 23.7754H6V25.5604H7.09121C7.40195 25.5604 7.64043 25.4736 7.79941 25.3074C7.9584 25.1412 8.03789 24.9316 8.03789 24.6715C8.03789 24.4113 7.9584 24.2018 7.79941 24.0283C7.64043 23.8621 7.40195 23.7754 7.09121 23.7754Z" fill="#11B24C"/><path d="M23.4992 0.433594H5.75801C5.23047 0.433594 4.79688 0.867187 4.79688 1.39473V19.9525H6.71914V2.35586H23.4992V9.01875H30.1621V34.6441H6.71914V31.0453H4.79688V35.6053C4.79688 36.1328 5.23047 36.5664 5.75801 36.5664H31.1232C31.6508 36.5664 32.0844 36.1328 32.0844 35.6053V9.01875L23.4992 0.433594Z" fill="#11B24C"/><path d="M27.5973 12.3862H9.28516V13.8026H27.5973V12.3862zM24.6994 15.1396H9.28516V16.5561H24.6994V15.1396z" fill="#11B24C"/></symbol>
<symbol viewBox="0 0 477.156 477.156" id="svg-phone"><path d="M475.009,380.316l-2.375-7.156c-5.625-16.719-24.062-34.156-41-38.75l-62.688-17.125c-17-4.625-41.25,1.594-53.688,14.031 l-22.688,22.688c-82.453-22.28-147.109-86.938-169.359-169.375L145.9,161.94c12.438-12.438,18.656-36.656,14.031-53.656 l-17.094-62.719c-4.625-16.969-22.094-35.406-38.781-40.969L96.9,2.19c-16.719-5.563-40.563,0.063-53,12.5L9.962,48.659 C3.899,54.69,0.024,71.94,0.024,72.003c-1.187,107.75,41.063,211.562,117.281,287.781 c76.031,76.031,179.454,118.219,286.891,117.313c0.562,0,18.312-3.813,24.375-9.845l33.938-33.938 C474.946,420.878,480.571,397.035,475.009,380.316z"/></symbol>
<symbol viewBox="0 0 37 37" fill="none" id="svg-play"><circle cx="18.5" cy="18.5" r="18.5" fill="#00A1E1"/><path d="M25 18.5L15.25 24.1292L15.25 12.8708L25 18.5Z" fill="#fff"/></symbol>
<symbol viewBox="0 0 21 19" fill="none" id="svg-quot"><path d="M20.916 18.2803L13.5674 18.2803L13.5674 9.90625C13.5674 3.77669 16.0169 0.711913 20.916 0.711914L20.916 3.37793C18.9108 3.46907 17.669 4.24381 17.1904 5.70215C16.8714 6.59082 16.7119 7.94661 16.7119 9.76953L16.7119 11L20.916 11L20.916 18.2803ZM8.0836 18.2803L0.734967 18.2803L0.734968 9.90625C0.734969 3.77669 3.18451 0.711912 8.0836 0.711912L8.0836 3.37793C6.07839 3.46907 4.83653 4.24381 4.35802 5.70215C4.039 6.59082 3.8795 7.94661 3.8795 9.76953L3.8795 11L8.0836 11L8.0836 18.2803Z" fill="#fff"/></symbol>
<symbol viewBox="0 0 20 17" id="svg-radio"><path d="M378.195439,3483.828 L376.781439,3485.242 C378.195439,3486.656 378.294439,3489.588 376.880439,3491.002 L378.294439,3492.417 C380.415439,3490.295 380.316439,3485.949 378.195439,3483.828 M381.023439,3481 L379.609439,3482.414 C382.438439,3485.242 382.537439,3491.002 379.708439,3493.831 L381.122439,3495.245 C385.365439,3491.002 384.559439,3484.535 381.023439,3481 M375.432439,3486.737 C375.409439,3486.711 375.392439,3486.682 375.367439,3486.656 L375.363439,3486.66 C374.582439,3485.879 373.243439,3485.952 372.536439,3486.659 C371.829439,3487.366 371.831439,3488.778 372.538439,3489.485 C372.547439,3489.494 372.558439,3489.499 372.567439,3489.508 C372.590439,3489.534 372.607439,3489.563 372.632439,3489.588 L372.636439,3489.585 C373.201439,3490.15 373.000439,3488.284 373.000439,3498 L375.000439,3498 C375.000439,3488.058 374.753439,3490.296 375.463439,3489.586 C376.170439,3488.879 376.168439,3487.467 375.461439,3486.76 C375.452439,3486.751 375.441439,3486.746 375.432439,3486.737 M371.119439,3485.242 L369.705439,3483.828 C367.584439,3485.949 367.683439,3490.295 369.804439,3492.417 L371.218439,3491.002 C369.804439,3489.588 369.705439,3486.656 371.119439,3485.242 M368.390439,3493.831 L366.976439,3495.245 C363.440439,3491.709 362.634439,3485.242 366.877439,3481 L368.291439,3482.414 C365.462439,3485.242 365.561439,3491.002 368.390439,3493.831" transform="translate(-364 -3481)"  fill-rule="evenodd"/></symbol>
<symbol viewBox="0 0 10 10" fill="none" id="svg-search"><path d="M6.11364 0C8.26036 0 10.001 1.72825 10.001 3.85974C10.001 5.99122 8.26036 7.71947 6.11363 7.71947C5.28812 7.71947 4.52256 7.46382 3.89326 7.02835L3.8928 7.02789L1.00977 9.89046C0.956268 9.94358 0.871199 9.94494 0.81631 9.89046L0.0392914 9.11896C-0.0142078 9.06584 -0.0114632 8.97776 0.0397482 8.9269L2.92236 6.06478C2.48377 5.4395 2.22629 4.67936 2.22629 3.85974C2.22629 1.72825 3.96691 0 6.11364 0ZM6.11364 6.8113C7.75548 6.8113 9.08632 5.48991 9.08632 3.85974C9.08632 2.22956 7.75546 0.908176 6.11364 0.908176C4.47182 0.908176 3.14096 2.22956 3.14096 3.85974C3.14096 5.48991 4.4718 6.8113 6.11364 6.8113Z" fill="#fff"/></symbol>
<symbol viewBox="0 0 15 17" fill="none" id="svg-small-arrow-next"><path d="M1 2L12 8.5L1 15"  stroke-width="3"/></symbol>
<symbol viewBox="0 0 15 17" fill="none" id="svg-small-arrow-prev"><path d="M14 2L3 8.5L14 15" stroke="#fff" stroke-width="3"/></symbol>
<symbol viewBox="0 0 37 37" fill="none" id="svg-txt"><g clip-path="url(#tclip0_118_746)" fill="#EF3343"><path d="M26.4182 20.6604H2.91016V30.3368H22.8771L26.4182 20.6604ZM11.3074 23.6594H9.74648V28.0387H8.90098V23.6594H7.36172V22.9801H11.3074V23.6594ZM15.0002 28.0387L13.9018 26.1381L12.8033 28.0387H11.8061L13.3959 25.4877L11.835 22.9801H12.8322L13.8873 24.8518L14.9568 22.9801H15.9541L14.4004 25.4877L16.0191 28.0387H15.0002ZM20.4273 23.6594H18.8592V28.0387H18.0137V23.6594H16.4744V22.9801H20.4201V23.6594H20.4273Z"/><path d="M25.4992 0.433594H7.75801C7.23047 0.433594 6.79688 0.867187 6.79688 1.39473V19.9525H8.71914V2.35586H25.4992V9.01875H32.1621V34.6441H8.71914V31.0453H6.79688V35.6053C6.79688 36.1328 7.23047 36.5664 7.75801 36.5664H33.1232C33.6508 36.5664 34.0844 36.1328 34.0844 35.6053V9.01875L25.4992 0.433594Z"/><path d="M29.6012 12.386H11.2891V13.8024H29.6012V12.386zM26.7033 15.1396H11.2891V16.5561H26.7033V15.1396z"/></g><defs><clipPath id="tclip0_118_746"><path fill="#fff" d="M0 0H37V37H0z"/></clipPath></defs></symbol>
<symbol viewBox="0 0 128 128" id="svg-youtube"><g clip-rule="evenodd"><path fill="none" d="M0 0H128V128H0z"/><path d="M126.72,38.224c0,0-1.252-8.883-5.088-12.794 c-4.868-5.136-10.324-5.16-12.824-5.458c-17.912-1.305-44.78-1.305-44.78-1.305h-0.056c0,0-26.868,0-44.78,1.305 c-2.504,0.298-7.956,0.322-12.828,5.458C2.528,29.342,1.28,38.224,1.28,38.224S0,48.658,0,59.087v9.781 c0,10.433,1.28,20.863,1.28,20.863s1.248,8.883,5.084,12.794c4.872,5.136,11.268,4.975,14.116,5.511 c10.24,0.991,43.52,1.297,43.52,1.297s26.896-0.04,44.808-1.345c2.5-0.302,7.956-0.326,12.824-5.462 c3.836-3.912,5.088-12.794,5.088-12.794S128,79.302,128,68.868v-9.781C128,48.658,126.72,38.224,126.72,38.224z M50.784,80.72 L50.78,44.501l34.584,18.172L50.784,80.72z" fill="#FFFFFF" fill-rule="evenodd"/></g></symbol></svg>