<svg width="134" height="30" viewBox="0 0 134 30" fill="none" xmlns="http://www.w3.org/2000/svg">
<g clip-path="url(#clip0_2_255)">
<path d="M0 18.0844V17.5151L1.87984 17.3906V1.12519L0 1.0051V0.435791H11.5426L11.6655 5.46618H10.9804C10.9395 4.86489 10.8409 4.26906 10.6861 3.68709C10.5517 3.20995 10.3394 2.75895 10.058 2.35277C9.767 1.94113 9.36636 1.62181 8.90288 1.43208C8.334 1.21271 7.72817 1.10845 7.11967 1.12519C6.41347 1.11078 5.70721 1.15092 5.00704 1.24528V8.86426H5.36281C5.81993 8.87307 6.27696 8.84181 6.72877 8.77085C7.05636 8.71093 7.36594 8.57549 7.63355 8.375C7.91491 8.15141 8.11309 7.83782 8.19575 7.48545C8.31449 6.96507 8.36762 6.43154 8.35386 5.89761H9.02586V12.5692H8.35386C8.35386 11.4365 8.17085 10.6493 7.80484 10.2075C7.44029 9.7627 6.8254 9.54921 5.97332 9.54921H5.00704V17.4039L7.3788 17.5285V18.0978L0 18.0844Z" fill="white"/>
<path d="M28.1924 18.0845V17.5152L30.0722 17.3907V1.12527L28.1924 1.00518V0.435871H34.7016C35.523 0.426065 36.3431 0.505089 37.148 0.6716C37.8344 0.809777 38.4944 1.05908 39.1025 1.40993C39.6579 1.73497 40.1139 2.20903 40.4201 2.77983C40.8535 3.65231 40.997 4.64321 40.8292 5.60495C40.6614 6.56669 40.1914 7.44783 39.489 8.11712C38.3874 8.97356 37.0717 9.50188 35.6898 9.6427V9.66938C36.2984 9.66354 36.9024 9.77681 37.4686 10.003C37.9211 10.1861 38.3288 10.4669 38.6633 10.8258C39.0001 11.2181 39.285 11.6532 39.511 12.1201C39.691 12.4803 39.9502 13.0363 40.2752 13.7835C40.6002 14.5308 40.934 15.189 41.259 15.7672C41.4711 16.173 41.747 16.541 42.076 16.8569C42.2823 17.0604 42.5274 17.2193 42.7963 17.3239C43.0151 17.3854 43.2413 17.4153 43.4683 17.4129V18.0934H41.4435C40.9517 18.1048 40.4601 18.0646 39.9765 17.9733C39.581 17.8772 39.2147 17.6849 38.9092 17.4129C38.5168 17.0687 38.1946 16.6502 37.9605 16.1809C37.6853 15.656 37.2139 14.5619 36.5463 12.8984C36.4438 12.6494 36.2974 12.3291 36.107 11.9377C35.8654 11.3843 35.5443 10.8702 35.154 10.4121C35.001 10.2159 34.8096 10.0539 34.5918 9.93624C34.4038 9.84048 34.196 9.79168 33.9856 9.79392C33.6284 9.79392 33.3561 9.79392 33.1687 9.79392V17.3862L35.0485 17.5107V18.08L28.1924 18.0845ZM33.1994 9.09117C33.2873 9.09117 33.4542 9.09117 33.7002 9.09117C35.1496 9.09117 36.1744 8.73387 36.7747 8.01927C37.3749 7.30466 37.6677 6.2372 37.6531 4.81689C37.6699 4.20891 37.5898 3.60216 37.4159 3.02001C37.282 2.57977 37.0367 2.18265 36.7044 1.86804C36.4054 1.60476 36.0553 1.40779 35.6766 1.28984C35.2599 1.16822 34.8277 1.10976 34.3941 1.11637C34.0015 1.12174 33.6096 1.15444 33.2214 1.21423L33.1994 9.09117Z" fill="white"/>
<path d="M58.9374 18.0844V17.5151L60.8173 17.3906V1.12519L58.9374 1.0051V0.435791H70.9675L71.0861 5.46618H70.5766C70.4756 4.90577 70.3746 4.42986 70.2648 4.03846C70.1474 3.63065 69.99 3.23579 69.7948 2.85981C69.6174 2.50106 69.3745 2.17959 69.0789 1.91244C68.768 1.65566 68.4118 1.46097 68.0292 1.33868C67.5501 1.1808 67.0483 1.10562 66.5446 1.11629C65.8551 1.11629 64.9854 1.15633 63.9445 1.23639V8.58405C64.186 8.61073 64.6297 8.61963 65.2621 8.61963C66.1186 8.61963 66.7291 8.41059 67.0936 7.98361C67.4582 7.55662 67.6427 6.78716 67.6427 5.66633H68.3147V12.3068H67.6427C67.6427 11.186 67.4582 10.4047 67.0893 9.96284C66.8514 9.72328 66.5645 9.53972 66.2487 9.42519C65.9329 9.31065 65.596 9.26795 65.2621 9.30013C64.6326 9.30013 64.1934 9.31347 63.9445 9.34016V17.2794C64.9854 17.3594 66.0176 17.4039 67.0453 17.4039C67.4714 17.4092 67.8969 17.369 68.3147 17.2838C68.6539 17.2179 68.9775 17.0865 69.2678 16.8969C69.5233 16.7256 69.7539 16.519 69.9529 16.2831C70.1633 16.0155 70.3295 15.715 70.4449 15.3935C70.5855 15.0476 70.7029 14.6925 70.7962 14.3305C70.8841 13.9747 70.9763 13.5388 71.0773 12.9962H71.6L71.4682 18.0444L58.9374 18.0844Z" fill="white"/>
<path d="M94.8625 0.680504C94.3394 0.671631 93.8181 0.743622 93.3164 0.893994C92.9092 1.01345 92.5298 1.21462 92.2008 1.48554C91.906 1.73331 91.674 2.04902 91.5244 2.40622C91.3684 2.78038 91.2907 3.18322 91.296 3.58932C91.2968 3.89013 91.3382 4.18942 91.419 4.47887C91.5254 4.81125 91.704 5.11523 91.9417 5.36842C92.2873 5.7398 92.6801 6.06289 93.11 6.32913C93.7693 6.73533 94.4579 7.09067 95.1699 7.39214C96.1625 7.85471 97.0029 8.28762 97.691 8.69088C98.3058 9.0394 98.8704 9.47193 99.3688 9.97628C99.7871 10.4094 100.106 10.9302 100.304 11.5019C100.507 12.1563 100.603 12.8398 100.59 13.5256C100.586 14.1364 100.465 14.7406 100.234 15.3047C99.9953 15.9081 99.6313 16.4527 99.1668 16.9014C98.6491 17.3997 98.0383 17.7883 97.3704 18.0445C96.5615 18.3556 95.7012 18.5066 94.8361 18.4893C93.9237 18.5073 93.0128 18.4056 92.1262 18.1868C91.5002 18.0287 90.9059 17.7623 90.3693 17.3995C89.9643 17.1223 89.6349 16.7459 89.4118 16.3054C89.2231 15.9225 89.1225 15.5013 89.1176 15.0734C89.117 14.8147 89.1585 14.5578 89.2405 14.3128C89.3202 14.0852 89.4425 13.8753 89.6007 13.6946C89.7663 13.5156 89.9667 13.3733 90.1892 13.2765C90.4377 13.1696 90.7055 13.1165 90.9754 13.1208C91.2269 13.1182 91.4762 13.1666 91.7089 13.2632C91.9179 13.3499 92.1064 13.4802 92.2623 13.6457C92.4162 13.8103 92.5371 14.0036 92.6181 14.215C92.7036 14.4422 92.7468 14.6835 92.7454 14.9266C92.7644 15.1727 92.7293 15.4199 92.6427 15.6506C92.5562 15.8813 92.4203 16.0897 92.2448 16.2609C91.8834 16.5658 91.4234 16.7242 90.9535 16.7057V16.7546C91.0528 16.8604 91.165 16.9531 91.2873 17.0304C91.506 17.1715 91.7385 17.2893 91.9812 17.3818C92.3397 17.5147 92.7084 17.6173 93.0837 17.6887C93.5924 17.7804 94.1086 17.8235 94.6253 17.8176C95.1194 17.817 95.6113 17.7497 96.0879 17.6175C96.5458 17.4993 96.9818 17.3071 97.3792 17.0482C97.7434 16.8186 98.0573 16.5158 98.3015 16.1586C98.5381 15.8044 98.6623 15.3854 98.6573 14.9577C98.6593 14.5916 98.5891 14.2287 98.4509 13.8903C98.2656 13.5003 97.9989 13.1558 97.6691 12.8807C97.1745 12.461 96.6405 12.0916 96.0747 11.7776C95.3954 11.3862 94.517 10.9414 93.4394 10.4433C92.7312 10.1516 92.0638 9.76735 91.4542 9.30022C90.9793 8.92443 90.5671 8.47393 90.2332 7.9659C89.9464 7.5193 89.7383 7.02569 89.6182 6.50704C89.5032 5.99335 89.4458 5.46817 89.447 4.94144C89.4444 4.28454 89.5682 3.63341 89.8115 3.02446C90.0538 2.43049 90.4159 1.89424 90.8744 1.44996C91.3713 0.981268 91.955 0.616945 92.5917 0.378055C93.3373 0.10335 94.1263 -0.0308103 94.9196 -0.017794C95.6622 -0.0300807 96.4024 0.0703662 97.1156 0.280204C97.6728 0.444813 98.1953 0.711659 98.6573 1.06746C99.0375 1.35839 99.3457 1.73485 99.5576 2.16711C99.7695 2.59937 99.8793 3.0756 99.8783 3.55819C99.8793 3.80053 99.8392 4.04124 99.7597 4.26983C99.6805 4.48871 99.5597 4.6897 99.404 4.86138C99.2421 5.0365 99.0462 5.17581 98.8286 5.27057C98.5817 5.37752 98.3153 5.43057 98.0468 5.42624C97.797 5.43074 97.549 5.38384 97.3177 5.28836C97.1055 5.20398 96.9116 5.0786 96.7467 4.9192C96.5875 4.7623 96.4632 4.57274 96.3822 4.36323C96.2937 4.13843 96.2504 3.898 96.2548 3.65604C96.2502 3.39073 96.2995 3.12731 96.3997 2.88213C96.4888 2.6667 96.6238 2.47382 96.795 2.31727C96.9655 2.1595 97.1678 2.04113 97.3879 1.97035C97.6241 1.88908 97.8721 1.84849 98.1215 1.85026V1.80133C98.0308 1.70163 97.9323 1.60942 97.8272 1.52557C97.6414 1.36987 97.4362 1.23976 97.2167 1.13862C96.9074 0.996452 96.5852 0.884744 96.2548 0.805041C95.7973 0.707418 95.3298 0.665609 94.8625 0.680504Z" fill="white"/>
<path d="M117.416 18.0844V17.5151L119.296 17.3906V1.12519L117.416 1.0051V0.435791H124.303V1.0051L122.423 1.12519V8.65966L129.012 8.56181V1.12519L127.132 1.0051V0.435791H134.001V1.0051L132.121 1.12519V17.3906L134.001 17.5151V18.0844H127.114V17.5151L128.994 17.3906V9.38464H122.406V17.3906L124.286 17.5151V18.0844H117.416Z" fill="white"/>
<path d="M5.29321 28.1097C5.285 28.373 5.22392 28.6319 5.11367 28.8704C5.00342 29.109 4.84632 29.3224 4.65196 29.4974C4.21981 29.8477 3.67641 30.0264 3.12351 30C2.81672 30.015 2.51058 29.9592 2.22827 29.8366C1.94596 29.7141 1.69486 29.5282 1.49401 29.2928C1.068 28.7419 0.85557 28.0522 0.896684 27.3536V27.0378C0.887 26.5603 0.981483 26.0865 1.17339 25.6501C1.33692 25.2708 1.60932 24.95 1.95519 24.7295C2.37227 24.4913 2.84911 24.3821 3.32681 24.4152C3.80451 24.4484 4.26215 24.6226 4.64319 24.9163C5.03587 25.285 5.27204 25.7936 5.30201 26.3351H4.19079C4.18961 26.0528 4.0865 25.7807 3.90091 25.5701C3.68548 25.3951 3.41186 25.3107 3.13668 25.3344C2.9761 25.3239 2.81554 25.3552 2.67026 25.4253C2.52498 25.4953 2.39978 25.6018 2.30656 25.7347C2.09545 26.115 1.99781 26.5491 2.02547 26.9845V27.3981C1.99324 27.8459 2.08447 28.294 2.28899 28.6924C2.38035 28.8288 2.50559 28.9384 2.65208 29.0103C2.79858 29.0821 2.96117 29.1136 3.12351 29.1016C3.40054 29.1233 3.67536 29.0374 3.89213 28.8614C4.07642 28.6624 4.17991 28.4004 4.182 28.1275L5.29321 28.1097Z" fill="white"/>
<path d="M10.7468 27.9273H9.86837V29.9244H8.75716V24.467H10.76C11.2881 24.4359 11.8103 24.5933 12.2357 24.9118C12.4095 25.0603 12.5468 25.2477 12.6367 25.4592C12.7266 25.6708 12.7668 25.9005 12.754 26.1304C12.7776 26.4558 12.6967 26.7801 12.5233 27.0551C12.35 27.33 12.0935 27.5408 11.7921 27.656L12.956 29.8799V29.9288H11.7658L10.7468 27.9273ZM9.86837 27.0156H10.7468C10.9824 27.0308 11.2149 26.9545 11.3968 26.8021C11.4746 26.7249 11.5353 26.6318 11.5746 26.5291C11.614 26.4263 11.6313 26.3161 11.6252 26.2061C11.6318 26.0957 11.6161 25.9852 11.5791 25.8812C11.5421 25.7772 11.4846 25.6819 11.41 25.6012C11.3187 25.5213 11.2128 25.4605 11.0982 25.4224C10.9836 25.3842 10.8627 25.3694 10.7424 25.3788H9.86397L9.86837 27.0156Z" fill="white"/>
<path d="M19.5618 27.5538H17.4316V29.0215H19.9308V29.9111H16.3336V24.467H19.9396V25.3566H17.4316V26.6553H19.5618V27.5538Z" fill="white"/>
<path d="M26.3578 28.817H24.4121L24.0387 29.9422H22.8573L24.8645 24.4849H25.8966L27.9126 29.9422H26.7311L26.3578 28.817ZM24.7107 27.9274H26.0591L25.3827 25.8814L24.7107 27.9274Z" fill="white"/>
<path d="M34.7806 25.3788H33.1292V29.9244H32.018V25.3788H30.3885V24.4893H34.7806V25.3788Z" fill="white"/>
<path d="M39.3048 29.9244H38.1936V24.467H39.3048V29.9244Z" fill="white"/>
<path d="M45.0549 28.5723L46.2759 24.467H47.5189L45.639 29.9244H44.4795L42.6129 24.467H43.8427L45.0549 28.5723Z" fill="white"/>
<path d="M53.9922 27.5538H51.8576V29.0215H54.3612V29.9111H50.7508V24.467H54.3568V25.3566H51.8576V26.6553H53.9922V27.5538Z" fill="white"/>
<path d="M66.5578 28.3722L67.2869 24.4893H68.3937L67.1947 29.9467H66.0791L65.2006 26.2951L64.3222 29.9467H63.2066L62.0119 24.467H63.1187L63.8522 28.3455L64.7307 24.467H65.6706L66.5578 28.3722Z" fill="white"/>
<path d="M74.9647 27.5538H72.8345V29.0215H75.3336V29.9111H71.7233V24.467H75.3293V25.3566H72.8345V26.6553H74.9647V27.5538Z" fill="white"/>
<path d="M78.7021 29.9243V24.4669H80.5907C81.1145 24.4318 81.6358 24.5657 82.0797 24.8494C82.2484 24.978 82.3832 25.1467 82.4721 25.3407C82.561 25.5347 82.6012 25.7479 82.5891 25.9614C82.5941 26.213 82.522 26.4601 82.3827 26.6686C82.2445 26.8733 82.0464 27.0289 81.8161 27.1133C82.0766 27.1718 82.3083 27.3214 82.4706 27.5359C82.6327 27.7632 82.716 28.0384 82.7077 28.3187C82.7232 28.5429 82.6863 28.7676 82.6 28.9747C82.5138 29.1817 82.3807 29.3654 82.2114 29.5107C81.7989 29.8044 81.3006 29.9486 80.7971 29.9199L78.7021 29.9243ZM79.8133 26.7531H80.6346C81.1968 26.7531 81.4779 26.5173 81.4779 26.077C81.4868 25.9771 81.4719 25.8765 81.4345 25.7836C81.397 25.6908 81.3381 25.6083 81.2627 25.5433C81.0621 25.4166 80.8264 25.3589 80.5907 25.3787H79.8133V26.7531ZM79.8133 27.5492V29.0214H80.7664C80.9854 29.0346 81.2018 28.9684 81.3769 28.8346C81.4511 28.77 81.5098 28.6892 81.5486 28.5983C81.5874 28.5074 81.6053 28.4087 81.6009 28.3098C81.6126 28.2055 81.6005 28.0999 81.5658 28.001C81.531 27.9021 81.4744 27.8126 81.4002 27.7392C81.3261 27.6658 81.2364 27.6106 81.138 27.5777C81.0395 27.5447 80.935 27.535 80.8323 27.5492H79.8133Z" fill="white"/>
<path d="M93.9482 28.817H92.0025L91.6291 29.9422H90.4476L92.4548 24.4849H93.487L95.503 29.9422H94.3215L93.9482 28.817ZM92.3011 27.9274H93.6363L92.9556 25.8814L92.3011 27.9274Z" fill="white"/>
<path d="M102.927 29.2351C102.698 29.4978 102.404 29.693 102.074 29.7999C101.685 29.9376 101.275 30.0053 100.862 30.0001C100.433 30.0091 100.009 29.9032 99.6325 29.6932C99.281 29.4842 98.9983 29.1747 98.8199 28.8036C98.6206 28.3707 98.52 27.898 98.5256 27.4204V27.0379C98.5151 26.5521 98.608 26.0697 98.7979 25.6235C98.962 25.2443 99.2362 24.9247 99.5841 24.7073C100.004 24.4769 100.478 24.3687 100.955 24.3946C101.432 24.4205 101.892 24.5795 102.285 24.854C102.66 25.1994 102.889 25.6769 102.927 26.1883H101.842C101.817 25.9281 101.702 25.6853 101.517 25.5034C101.316 25.3501 101.069 25.273 100.818 25.2855C100.646 25.2765 100.475 25.3128 100.321 25.3907C100.167 25.4687 100.036 25.5856 99.9399 25.7302C99.7181 26.1198 99.6143 26.5668 99.6412 27.0156V27.3626C99.6118 27.8187 99.7239 28.2728 99.9619 28.6613C100.071 28.8079 100.215 28.9251 100.379 29.0026C100.544 29.0802 100.725 29.1157 100.906 29.1061C101.223 29.1334 101.537 29.0363 101.785 28.8348V27.8963H100.774V27.069H102.896L102.927 29.2351Z" fill="white"/>
<path d="M109.794 27.5538H107.664V29.0215H110.163V29.9111H106.553V24.467H110.159V25.3566H107.664V26.6553H109.794V27.5538Z" fill="white"/>
<path d="M117.929 29.9244H116.823L114.657 26.3351V29.9244H113.546V24.467H114.657L116.823 28.0653V24.467H117.929V29.9244Z" fill="white"/>
<path d="M125.86 28.1097C125.853 28.3732 125.792 28.6324 125.682 28.8711C125.572 29.1099 125.414 29.323 125.219 29.4974C124.787 29.8477 124.243 30.0264 123.691 30C123.384 30.015 123.078 29.9592 122.795 29.8366C122.513 29.7141 122.262 29.5282 122.061 29.2928C121.638 28.7403 121.428 28.0514 121.468 27.3536V27.0378C121.457 26.5606 121.55 26.0868 121.74 25.6501C121.906 25.2718 122.178 24.9515 122.522 24.7295C122.939 24.4913 123.416 24.3821 123.894 24.4152C124.372 24.4484 124.829 24.6226 125.21 24.9163C125.603 25.285 125.839 25.7936 125.869 26.3351H124.758C124.759 26.0524 124.655 25.7796 124.468 25.5701C124.254 25.3958 123.982 25.3114 123.708 25.3344C123.547 25.3236 123.386 25.3547 123.24 25.4247C123.094 25.4948 122.968 25.6015 122.874 25.7347C122.663 26.115 122.565 26.5491 122.593 26.9845V27.3981C122.56 27.8459 122.652 28.294 122.856 28.6924C122.948 28.8285 123.073 28.9379 123.219 29.0097C123.366 29.0815 123.528 29.1132 123.691 29.1016C123.968 29.1238 124.243 29.0379 124.459 28.8614C124.647 28.6646 124.751 28.4012 124.749 28.1275L125.86 28.1097Z" fill="white"/>
<path d="M131.18 26.9266L132.3 24.467H133.517L131.76 27.9451V29.9244H130.618V27.9274L128.861 24.4492H130.077L131.18 26.9266Z" fill="white"/>
</g>
<defs>
<clipPath id="clip0_2_255">
<rect width="134" height="30" fill="white"/>
</clipPath>
</defs>
</svg>
